<mxfile host="app.diagrams.net" agent="Mozilla/5.0 (Windows NT 10.0; Win64; x64) AppleWebKit/537.36 (KHTML, like Gecko) Chrome/133.0.0.0 Safari/537.36" version="26.0.15" pages="2">
  <diagram name="Page-1" id="sOFMpilZNB5cvKreR1GH">
    <mxGraphModel dx="1134" dy="1737" grid="1" gridSize="10" guides="1" tooltips="1" connect="1" arrows="1" fold="1" page="1" pageScale="1" pageWidth="850" pageHeight="1100" math="0" shadow="0">
      <root>
        <mxCell id="0" />
        <mxCell id="1" parent="0" />
        <mxCell id="Bi_WHDwyWcHoKQdKRRp5-1" value="" style="rounded=0;whiteSpace=wrap;html=1;" vertex="1" parent="1">
          <mxGeometry x="20" y="-20" width="790" height="590" as="geometry" />
        </mxCell>
        <mxCell id="Bi_WHDwyWcHoKQdKRRp5-2" value="CSR" style="swimlane;html=1;childLayout=stackLayout;startSize=20;rounded=0;shadow=0;comic=0;labelBackgroundColor=none;strokeWidth=1;fontFamily=Verdana;fontSize=12;align=center;" vertex="1" parent="1">
          <mxGeometry x="40" y="20" width="750" height="490" as="geometry" />
        </mxCell>
        <mxCell id="Bi_WHDwyWcHoKQdKRRp5-3" value="Marketing &amp;amp; Internal Audit" style="swimlane;html=1;startSize=20;" vertex="1" parent="Bi_WHDwyWcHoKQdKRRp5-2">
          <mxGeometry y="20" width="250" height="470" as="geometry" />
        </mxCell>
        <mxCell id="Bi_WHDwyWcHoKQdKRRp5-4" value="" style="ellipse;whiteSpace=wrap;html=1;rounded=0;shadow=0;comic=0;labelBackgroundColor=none;strokeWidth=1;fillColor=#000000;fontFamily=Verdana;fontSize=12;align=center;" vertex="1" parent="Bi_WHDwyWcHoKQdKRRp5-3">
          <mxGeometry x="100" y="30" width="40" height="40" as="geometry" />
        </mxCell>
        <mxCell id="Bi_WHDwyWcHoKQdKRRp5-5" value="Start" style="rounded=1;whiteSpace=wrap;html=1;shadow=0;comic=0;labelBackgroundColor=none;strokeWidth=1;fontFamily=Verdana;fontSize=12;align=center;arcSize=50;" vertex="1" parent="Bi_WHDwyWcHoKQdKRRp5-3">
          <mxGeometry x="70" y="100" width="100" height="30" as="geometry" />
        </mxCell>
        <mxCell id="Bi_WHDwyWcHoKQdKRRp5-6" style="edgeStyle=orthogonalEdgeStyle;rounded=0;html=1;labelBackgroundColor=none;startArrow=none;startFill=0;startSize=5;endArrow=classicThin;endFill=1;endSize=5;jettySize=auto;orthogonalLoop=1;strokeWidth=1;fontFamily=Verdana;fontSize=12" edge="1" parent="Bi_WHDwyWcHoKQdKRRp5-3" source="Bi_WHDwyWcHoKQdKRRp5-4" target="Bi_WHDwyWcHoKQdKRRp5-5">
          <mxGeometry relative="1" as="geometry" />
        </mxCell>
        <mxCell id="Bi_WHDwyWcHoKQdKRRp5-7" value="" style="shape=mxgraph.bpmn.shape;html=1;verticalLabelPosition=bottom;labelBackgroundColor=#ffffff;verticalAlign=top;perimeter=ellipsePerimeter;outline=end;symbol=terminate;rounded=0;shadow=0;comic=0;strokeWidth=1;fontFamily=Verdana;fontSize=12;align=center;" vertex="1" parent="Bi_WHDwyWcHoKQdKRRp5-3">
          <mxGeometry x="100" y="320" width="40" height="40" as="geometry" />
        </mxCell>
        <mxCell id="Bi_WHDwyWcHoKQdKRRp5-8" style="edgeStyle=orthogonalEdgeStyle;rounded=0;orthogonalLoop=1;jettySize=auto;html=1;exitX=0.5;exitY=1;exitDx=0;exitDy=0;" edge="1" parent="Bi_WHDwyWcHoKQdKRRp5-3" source="Bi_WHDwyWcHoKQdKRRp5-9" target="Bi_WHDwyWcHoKQdKRRp5-7">
          <mxGeometry relative="1" as="geometry" />
        </mxCell>
        <mxCell id="Bi_WHDwyWcHoKQdKRRp5-9" value="View Report" style="rounded=0;whiteSpace=wrap;html=1;" vertex="1" parent="Bi_WHDwyWcHoKQdKRRp5-3">
          <mxGeometry x="60" y="190" width="120" height="60" as="geometry" />
        </mxCell>
        <mxCell id="Bi_WHDwyWcHoKQdKRRp5-10" style="edgeStyle=orthogonalEdgeStyle;rounded=0;orthogonalLoop=1;jettySize=auto;html=1;exitX=0.5;exitY=1;exitDx=0;exitDy=0;" edge="1" parent="Bi_WHDwyWcHoKQdKRRp5-3" source="Bi_WHDwyWcHoKQdKRRp5-5" target="Bi_WHDwyWcHoKQdKRRp5-9">
          <mxGeometry relative="1" as="geometry" />
        </mxCell>
        <mxCell id="Bi_WHDwyWcHoKQdKRRp5-11" value="System" style="swimlane;html=1;startSize=20;" vertex="1" parent="Bi_WHDwyWcHoKQdKRRp5-2">
          <mxGeometry x="250" y="20" width="250" height="470" as="geometry" />
        </mxCell>
        <mxCell id="Bi_WHDwyWcHoKQdKRRp5-12" value="Recap Data" style="shape=process;whiteSpace=wrap;html=1;backgroundOutline=1;" vertex="1" parent="Bi_WHDwyWcHoKQdKRRp5-11">
          <mxGeometry x="65" y="110" width="120" height="60" as="geometry" />
        </mxCell>
        <mxCell id="Bi_WHDwyWcHoKQdKRRp5-13" value="Data Report CSR" style="shape=document;whiteSpace=wrap;html=1;boundedLbl=1;" vertex="1" parent="Bi_WHDwyWcHoKQdKRRp5-11">
          <mxGeometry x="65" y="230" width="120" height="80" as="geometry" />
        </mxCell>
        <mxCell id="Bi_WHDwyWcHoKQdKRRp5-14" style="edgeStyle=orthogonalEdgeStyle;rounded=0;orthogonalLoop=1;jettySize=auto;html=1;exitX=0.5;exitY=0;exitDx=0;exitDy=0;entryX=0.5;entryY=1;entryDx=0;entryDy=0;" edge="1" parent="Bi_WHDwyWcHoKQdKRRp5-11" source="Bi_WHDwyWcHoKQdKRRp5-13" target="Bi_WHDwyWcHoKQdKRRp5-12">
          <mxGeometry relative="1" as="geometry" />
        </mxCell>
        <mxCell id="Bi_WHDwyWcHoKQdKRRp5-15" value="Database" style="swimlane;html=1;startSize=20;" vertex="1" parent="Bi_WHDwyWcHoKQdKRRp5-2">
          <mxGeometry x="500" y="20" width="250" height="470" as="geometry" />
        </mxCell>
        <mxCell id="Bi_WHDwyWcHoKQdKRRp5-16" value="Data Autoclaim" style="shape=cylinder3;whiteSpace=wrap;html=1;boundedLbl=1;backgroundOutline=1;size=15;" vertex="1" parent="Bi_WHDwyWcHoKQdKRRp5-15">
          <mxGeometry x="95" y="160" width="60" height="80" as="geometry" />
        </mxCell>
        <mxCell id="Bi_WHDwyWcHoKQdKRRp5-17" value="Data CSR" style="shape=cylinder3;whiteSpace=wrap;html=1;boundedLbl=1;backgroundOutline=1;size=15;" vertex="1" parent="Bi_WHDwyWcHoKQdKRRp5-15">
          <mxGeometry x="95" y="40" width="60" height="80" as="geometry" />
        </mxCell>
        <mxCell id="Bi_WHDwyWcHoKQdKRRp5-18" style="edgeStyle=orthogonalEdgeStyle;rounded=0;orthogonalLoop=1;jettySize=auto;html=1;exitX=1;exitY=0.5;exitDx=0;exitDy=0;" edge="1" parent="Bi_WHDwyWcHoKQdKRRp5-2" source="Bi_WHDwyWcHoKQdKRRp5-12" target="Bi_WHDwyWcHoKQdKRRp5-17">
          <mxGeometry relative="1" as="geometry" />
        </mxCell>
        <mxCell id="Bi_WHDwyWcHoKQdKRRp5-19" style="edgeStyle=orthogonalEdgeStyle;rounded=0;orthogonalLoop=1;jettySize=auto;html=1;exitX=1;exitY=0.5;exitDx=0;exitDy=0;" edge="1" parent="Bi_WHDwyWcHoKQdKRRp5-2" source="Bi_WHDwyWcHoKQdKRRp5-12" target="Bi_WHDwyWcHoKQdKRRp5-16">
          <mxGeometry relative="1" as="geometry" />
        </mxCell>
        <mxCell id="Bi_WHDwyWcHoKQdKRRp5-20" style="edgeStyle=orthogonalEdgeStyle;rounded=0;orthogonalLoop=1;jettySize=auto;html=1;exitX=1;exitY=0.5;exitDx=0;exitDy=0;entryX=0;entryY=0.5;entryDx=0;entryDy=0;" edge="1" parent="Bi_WHDwyWcHoKQdKRRp5-2" source="Bi_WHDwyWcHoKQdKRRp5-9" target="Bi_WHDwyWcHoKQdKRRp5-13">
          <mxGeometry relative="1" as="geometry">
            <Array as="points">
              <mxPoint x="240" y="240" />
              <mxPoint x="240" y="290" />
            </Array>
          </mxGeometry>
        </mxCell>
      </root>
    </mxGraphModel>
  </diagram>
  <diagram id="L2c6UNhgiZmXjPRVRA-k" name="Page-2">
    <mxGraphModel dx="3497" dy="2587" grid="1" gridSize="10" guides="1" tooltips="1" connect="1" arrows="1" fold="1" page="1" pageScale="1" pageWidth="850" pageHeight="1100" math="0" shadow="0">
      <root>
        <mxCell id="0" />
        <mxCell id="1" parent="0" />
        <mxCell id="ZF9SivgB0cZclBS1c-uX-1" value="" style="rounded=0;whiteSpace=wrap;html=1;" vertex="1" parent="1">
          <mxGeometry x="-180" y="-260" width="1830" height="1250" as="geometry" />
        </mxCell>
        <mxCell id="ZF9SivgB0cZclBS1c-uX-119" style="edgeStyle=orthogonalEdgeStyle;rounded=0;orthogonalLoop=1;jettySize=auto;html=1;exitX=0;exitY=0.5;exitDx=0;exitDy=0;entryX=0;entryY=0.5;entryDx=0;entryDy=0;" edge="1" parent="1" source="ZF9SivgB0cZclBS1c-uX-8" target="ZF9SivgB0cZclBS1c-uX-65">
          <mxGeometry relative="1" as="geometry" />
        </mxCell>
        <mxCell id="ZF9SivgB0cZclBS1c-uX-120" style="edgeStyle=orthogonalEdgeStyle;rounded=0;orthogonalLoop=1;jettySize=auto;html=1;exitX=0;exitY=0.5;exitDx=0;exitDy=0;entryX=0;entryY=0.5;entryDx=0;entryDy=0;" edge="1" parent="1" source="ZF9SivgB0cZclBS1c-uX-8" target="ZF9SivgB0cZclBS1c-uX-104">
          <mxGeometry relative="1" as="geometry" />
        </mxCell>
        <mxCell id="ZF9SivgB0cZclBS1c-uX-121" style="edgeStyle=orthogonalEdgeStyle;rounded=0;orthogonalLoop=1;jettySize=auto;html=1;exitX=0;exitY=0.5;exitDx=0;exitDy=0;entryX=0;entryY=0.5;entryDx=0;entryDy=0;" edge="1" parent="1" source="ZF9SivgB0cZclBS1c-uX-8" target="ZF9SivgB0cZclBS1c-uX-109">
          <mxGeometry relative="1" as="geometry" />
        </mxCell>
        <mxCell id="ZF9SivgB0cZclBS1c-uX-122" style="edgeStyle=orthogonalEdgeStyle;rounded=0;orthogonalLoop=1;jettySize=auto;html=1;exitX=0;exitY=0.5;exitDx=0;exitDy=0;entryX=0;entryY=0.5;entryDx=0;entryDy=0;" edge="1" parent="1" source="ZF9SivgB0cZclBS1c-uX-8" target="ZF9SivgB0cZclBS1c-uX-115">
          <mxGeometry relative="1" as="geometry" />
        </mxCell>
        <mxCell id="ZF9SivgB0cZclBS1c-uX-137" style="edgeStyle=orthogonalEdgeStyle;rounded=0;orthogonalLoop=1;jettySize=auto;html=1;exitX=0;exitY=0.5;exitDx=0;exitDy=0;entryX=0;entryY=0.5;entryDx=0;entryDy=0;" edge="1" parent="1" source="ZF9SivgB0cZclBS1c-uX-8" target="ZF9SivgB0cZclBS1c-uX-132">
          <mxGeometry relative="1" as="geometry" />
        </mxCell>
        <mxCell id="ZF9SivgB0cZclBS1c-uX-8" value="Reporting" style="rounded=1;fillColor=#23445D;gradientColor=none;strokeColor=none;fontColor=#FFFFFF;fontStyle=1;fontFamily=Tahoma;fontSize=14" vertex="1" parent="1">
          <mxGeometry x="1179.9999999999998" y="230" width="190" height="80" as="geometry" />
        </mxCell>
        <mxCell id="ZF9SivgB0cZclBS1c-uX-87" style="edgeStyle=orthogonalEdgeStyle;rounded=0;orthogonalLoop=1;jettySize=auto;html=1;exitX=0;exitY=0.5;exitDx=0;exitDy=0;entryX=0;entryY=0.5;entryDx=0;entryDy=0;" edge="1" parent="1" source="ZF9SivgB0cZclBS1c-uX-12" target="ZF9SivgB0cZclBS1c-uX-62">
          <mxGeometry relative="1" as="geometry" />
        </mxCell>
        <mxCell id="ZF9SivgB0cZclBS1c-uX-12" value="Approval" style="rounded=1;fillColor=#23445D;gradientColor=none;strokeColor=none;fontColor=#FFFFFF;fontStyle=1;fontFamily=Tahoma;fontSize=14" vertex="1" parent="1">
          <mxGeometry x="880" y="230" width="190" height="80" as="geometry" />
        </mxCell>
        <mxCell id="ZF9SivgB0cZclBS1c-uX-80" style="edgeStyle=orthogonalEdgeStyle;rounded=0;orthogonalLoop=1;jettySize=auto;html=1;exitX=0;exitY=0.5;exitDx=0;exitDy=0;entryX=0;entryY=0.5;entryDx=0;entryDy=0;" edge="1" parent="1" source="ZF9SivgB0cZclBS1c-uX-13" target="ZF9SivgB0cZclBS1c-uX-61">
          <mxGeometry relative="1" as="geometry" />
        </mxCell>
        <mxCell id="ZF9SivgB0cZclBS1c-uX-81" style="edgeStyle=orthogonalEdgeStyle;rounded=0;orthogonalLoop=1;jettySize=auto;html=1;exitX=0;exitY=0.5;exitDx=0;exitDy=0;entryX=0;entryY=0.5;entryDx=0;entryDy=0;" edge="1" parent="1" source="ZF9SivgB0cZclBS1c-uX-13" target="ZF9SivgB0cZclBS1c-uX-64">
          <mxGeometry relative="1" as="geometry" />
        </mxCell>
        <mxCell id="ZF9SivgB0cZclBS1c-uX-13" value="Detail Pengajuan" style="rounded=1;fillColor=#23445D;gradientColor=none;strokeColor=none;fontColor=#FFFFFF;fontStyle=1;fontFamily=Tahoma;fontSize=14" vertex="1" parent="1">
          <mxGeometry x="599.9999999999999" y="230" width="190" height="80" as="geometry" />
        </mxCell>
        <mxCell id="ZF9SivgB0cZclBS1c-uX-82" style="edgeStyle=orthogonalEdgeStyle;rounded=0;orthogonalLoop=1;jettySize=auto;html=1;exitX=0;exitY=0.5;exitDx=0;exitDy=0;entryX=0;entryY=0.5;entryDx=0;entryDy=0;" edge="1" parent="1" source="ZF9SivgB0cZclBS1c-uX-14" target="ZF9SivgB0cZclBS1c-uX-16">
          <mxGeometry relative="1" as="geometry" />
        </mxCell>
        <mxCell id="ZF9SivgB0cZclBS1c-uX-14" value="Pengajuan" style="rounded=1;fillColor=#23445D;gradientColor=none;strokeColor=none;fontColor=#FFFFFF;fontStyle=1;fontFamily=Tahoma;fontSize=14" vertex="1" parent="1">
          <mxGeometry x="310" y="230" width="190" height="80" as="geometry" />
        </mxCell>
        <mxCell id="ZF9SivgB0cZclBS1c-uX-16" value="Pengajuan Baru" style="rounded=1;fillColor=#23445D;gradientColor=none;strokeColor=none;fontColor=#FFFFFF;fontStyle=1;fontFamily=Tahoma;fontSize=14" vertex="1" parent="1">
          <mxGeometry x="320" y="375" width="130" height="60" as="geometry" />
        </mxCell>
        <mxCell id="ZF9SivgB0cZclBS1c-uX-20" style="edgeStyle=orthogonalEdgeStyle;rounded=0;orthogonalLoop=1;jettySize=auto;html=1;exitX=0.5;exitY=1;exitDx=0;exitDy=0;entryX=0.5;entryY=0;entryDx=0;entryDy=0;" edge="1" parent="1" source="ZF9SivgB0cZclBS1c-uX-21" target="ZF9SivgB0cZclBS1c-uX-56">
          <mxGeometry relative="1" as="geometry">
            <mxPoint x="846.9999999999995" y="30" as="targetPoint" />
          </mxGeometry>
        </mxCell>
        <mxCell id="ZF9SivgB0cZclBS1c-uX-21" value="Login" style="rounded=1;fillColor=#23445D;gradientColor=none;strokeColor=none;fontColor=#FFFFFF;fontStyle=1;fontFamily=Tahoma;fontSize=14" vertex="1" parent="1">
          <mxGeometry x="600" y="-220" width="190" height="80" as="geometry" />
        </mxCell>
        <mxCell id="ZF9SivgB0cZclBS1c-uX-59" style="edgeStyle=orthogonalEdgeStyle;rounded=0;orthogonalLoop=1;jettySize=auto;html=1;exitX=0.5;exitY=1;exitDx=0;exitDy=0;" edge="1" parent="1" source="ZF9SivgB0cZclBS1c-uX-56" target="ZF9SivgB0cZclBS1c-uX-57">
          <mxGeometry relative="1" as="geometry" />
        </mxCell>
        <mxCell id="ZF9SivgB0cZclBS1c-uX-56" value="DAP System" style="rounded=1;fillColor=#23445D;gradientColor=none;strokeColor=none;fontColor=#FFFFFF;fontStyle=1;fontFamily=Tahoma;fontSize=14" vertex="1" parent="1">
          <mxGeometry x="600" y="-60" width="190" height="80" as="geometry" />
        </mxCell>
        <mxCell id="ZF9SivgB0cZclBS1c-uX-79" style="edgeStyle=orthogonalEdgeStyle;rounded=0;orthogonalLoop=1;jettySize=auto;html=1;exitX=0.5;exitY=1;exitDx=0;exitDy=0;" edge="1" parent="1" source="ZF9SivgB0cZclBS1c-uX-57" target="ZF9SivgB0cZclBS1c-uX-13">
          <mxGeometry relative="1" as="geometry" />
        </mxCell>
        <mxCell id="ZF9SivgB0cZclBS1c-uX-83" style="edgeStyle=orthogonalEdgeStyle;rounded=0;orthogonalLoop=1;jettySize=auto;html=1;exitX=0.5;exitY=1;exitDx=0;exitDy=0;" edge="1" parent="1" source="ZF9SivgB0cZclBS1c-uX-57" target="ZF9SivgB0cZclBS1c-uX-63">
          <mxGeometry relative="1" as="geometry" />
        </mxCell>
        <mxCell id="ZF9SivgB0cZclBS1c-uX-84" style="edgeStyle=orthogonalEdgeStyle;rounded=0;orthogonalLoop=1;jettySize=auto;html=1;exitX=0.5;exitY=1;exitDx=0;exitDy=0;" edge="1" parent="1" source="ZF9SivgB0cZclBS1c-uX-57" target="ZF9SivgB0cZclBS1c-uX-14">
          <mxGeometry relative="1" as="geometry" />
        </mxCell>
        <mxCell id="ZF9SivgB0cZclBS1c-uX-85" style="edgeStyle=orthogonalEdgeStyle;rounded=0;orthogonalLoop=1;jettySize=auto;html=1;exitX=0.5;exitY=1;exitDx=0;exitDy=0;entryX=0.5;entryY=0;entryDx=0;entryDy=0;" edge="1" parent="1" source="ZF9SivgB0cZclBS1c-uX-57" target="ZF9SivgB0cZclBS1c-uX-12">
          <mxGeometry relative="1" as="geometry" />
        </mxCell>
        <mxCell id="ZF9SivgB0cZclBS1c-uX-86" style="edgeStyle=orthogonalEdgeStyle;rounded=0;orthogonalLoop=1;jettySize=auto;html=1;exitX=0.5;exitY=1;exitDx=0;exitDy=0;" edge="1" parent="1" source="ZF9SivgB0cZclBS1c-uX-57" target="ZF9SivgB0cZclBS1c-uX-8">
          <mxGeometry relative="1" as="geometry" />
        </mxCell>
        <mxCell id="ZF9SivgB0cZclBS1c-uX-57" value="CSR" style="rounded=1;fillColor=#23445D;gradientColor=none;strokeColor=none;fontColor=#FFFFFF;fontStyle=1;fontFamily=Tahoma;fontSize=14" vertex="1" parent="1">
          <mxGeometry x="600" y="70" width="190" height="80" as="geometry" />
        </mxCell>
        <mxCell id="ZF9SivgB0cZclBS1c-uX-61" value="Attachment Docs" style="rounded=1;fillColor=#23445D;gradientColor=none;strokeColor=none;fontColor=#FFFFFF;fontStyle=1;fontFamily=Tahoma;fontSize=14" vertex="1" parent="1">
          <mxGeometry x="610" y="379" width="130" height="60" as="geometry" />
        </mxCell>
        <mxCell id="ZF9SivgB0cZclBS1c-uX-62" value="Finish CSR" style="rounded=1;fillColor=#23445D;gradientColor=none;strokeColor=none;fontColor=#FFFFFF;fontStyle=1;fontFamily=Tahoma;fontSize=14" vertex="1" parent="1">
          <mxGeometry x="870" y="379" width="130" height="60" as="geometry" />
        </mxCell>
        <mxCell id="ZF9SivgB0cZclBS1c-uX-63" value="Master Item" style="rounded=1;fillColor=#23445D;gradientColor=none;strokeColor=none;fontColor=#FFFFFF;fontStyle=1;fontFamily=Tahoma;fontSize=14" vertex="1" parent="1">
          <mxGeometry x="17" y="230" width="190" height="80" as="geometry" />
        </mxCell>
        <mxCell id="ZF9SivgB0cZclBS1c-uX-64" value="Attachment" style="rounded=1;fillColor=#23445D;gradientColor=none;strokeColor=none;fontColor=#FFFFFF;fontStyle=1;fontFamily=Tahoma;fontSize=14" vertex="1" parent="1">
          <mxGeometry x="610" y="480" width="130" height="60" as="geometry" />
        </mxCell>
        <mxCell id="ZF9SivgB0cZclBS1c-uX-70" value="" style="group" vertex="1" connectable="0" parent="1">
          <mxGeometry x="-90" y="720" width="571.5" height="119" as="geometry" />
        </mxCell>
        <mxCell id="ZF9SivgB0cZclBS1c-uX-47" value="" style="verticalLabelPosition=bottom;html=1;verticalAlign=top;align=center;strokeColor=#9673a6;fillColor=#e1d5e7;shape=mxgraph.azure.user;" vertex="1" parent="ZF9SivgB0cZclBS1c-uX-70">
          <mxGeometry x="1" width="47.5" height="50" as="geometry" />
        </mxCell>
        <mxCell id="ZF9SivgB0cZclBS1c-uX-48" value="" style="verticalLabelPosition=bottom;html=1;verticalAlign=top;align=center;strokeColor=#82b366;fillColor=#d5e8d4;shape=mxgraph.azure.user;" vertex="1" parent="ZF9SivgB0cZclBS1c-uX-70">
          <mxGeometry y="69" width="47.5" height="50" as="geometry" />
        </mxCell>
        <mxCell id="ZF9SivgB0cZclBS1c-uX-50" value="Tim Marketing" style="text;html=1;align=left;verticalAlign=middle;whiteSpace=wrap;rounded=0;fontSize=27;" vertex="1" parent="ZF9SivgB0cZclBS1c-uX-70">
          <mxGeometry x="81.5" y="10" width="490" height="30" as="geometry" />
        </mxCell>
        <mxCell id="ZF9SivgB0cZclBS1c-uX-51" value="Tim Internal Audit" style="text;html=1;align=left;verticalAlign=middle;whiteSpace=wrap;rounded=0;fontSize=27;" vertex="1" parent="ZF9SivgB0cZclBS1c-uX-70">
          <mxGeometry x="76.5" y="89" width="365" height="30" as="geometry" />
        </mxCell>
        <mxCell id="ZF9SivgB0cZclBS1c-uX-43" value="" style="verticalLabelPosition=bottom;html=1;verticalAlign=top;align=center;strokeColor=#9673a6;fillColor=#e1d5e7;shape=mxgraph.azure.user;" vertex="1" parent="1">
          <mxGeometry x="960" y="409" width="47.5" height="50" as="geometry" />
        </mxCell>
        <mxCell id="ZF9SivgB0cZclBS1c-uX-102" value="" style="group" vertex="1" connectable="0" parent="1">
          <mxGeometry x="1200" y="379" width="258.5" height="93" as="geometry" />
        </mxCell>
        <mxCell id="ZF9SivgB0cZclBS1c-uX-65" value="Report Rekap Pengajuan" style="whiteSpace=wrap;html=1;fontSize=14;fontFamily=Tahoma;fillColor=#dae8fc;strokeColor=#6c8ebf;rounded=1;fontStyle=1;" vertex="1" parent="ZF9SivgB0cZclBS1c-uX-102">
          <mxGeometry width="215" height="60" as="geometry" />
        </mxCell>
        <mxCell id="ZF9SivgB0cZclBS1c-uX-71" value="" style="group" vertex="1" connectable="0" parent="ZF9SivgB0cZclBS1c-uX-102">
          <mxGeometry x="195" y="34" width="63.5" height="59" as="geometry" />
        </mxCell>
        <mxCell id="ZF9SivgB0cZclBS1c-uX-41" value="" style="verticalLabelPosition=bottom;html=1;verticalAlign=top;align=center;strokeColor=#9673a6;fillColor=#e1d5e7;shape=mxgraph.azure.user;" vertex="1" parent="ZF9SivgB0cZclBS1c-uX-71">
          <mxGeometry width="47.5" height="50" as="geometry" />
        </mxCell>
        <mxCell id="ZF9SivgB0cZclBS1c-uX-42" value="" style="verticalLabelPosition=bottom;html=1;verticalAlign=top;align=center;strokeColor=#82b366;fillColor=#d5e8d4;shape=mxgraph.azure.user;" vertex="1" parent="ZF9SivgB0cZclBS1c-uX-71">
          <mxGeometry x="13" y="9" width="47.5" height="50" as="geometry" />
        </mxCell>
        <mxCell id="ZF9SivgB0cZclBS1c-uX-103" value="" style="group" vertex="1" connectable="0" parent="1">
          <mxGeometry x="1200" y="480" width="258.5" height="93" as="geometry" />
        </mxCell>
        <mxCell id="ZF9SivgB0cZclBS1c-uX-104" value="Report Trend NSBU &amp;amp; GP" style="whiteSpace=wrap;html=1;fontSize=14;fontFamily=Tahoma;fillColor=#dae8fc;strokeColor=#6c8ebf;rounded=1;fontStyle=1;" vertex="1" parent="ZF9SivgB0cZclBS1c-uX-103">
          <mxGeometry width="215" height="60" as="geometry" />
        </mxCell>
        <mxCell id="ZF9SivgB0cZclBS1c-uX-105" value="" style="group" vertex="1" connectable="0" parent="ZF9SivgB0cZclBS1c-uX-103">
          <mxGeometry x="195" y="34" width="63.5" height="59" as="geometry" />
        </mxCell>
        <mxCell id="ZF9SivgB0cZclBS1c-uX-106" value="" style="verticalLabelPosition=bottom;html=1;verticalAlign=top;align=center;strokeColor=#9673a6;fillColor=#e1d5e7;shape=mxgraph.azure.user;" vertex="1" parent="ZF9SivgB0cZclBS1c-uX-105">
          <mxGeometry width="47.5" height="50" as="geometry" />
        </mxCell>
        <mxCell id="ZF9SivgB0cZclBS1c-uX-107" value="" style="verticalLabelPosition=bottom;html=1;verticalAlign=top;align=center;strokeColor=#82b366;fillColor=#d5e8d4;shape=mxgraph.azure.user;" vertex="1" parent="ZF9SivgB0cZclBS1c-uX-105">
          <mxGeometry x="13" y="9" width="47.5" height="50" as="geometry" />
        </mxCell>
        <mxCell id="ZF9SivgB0cZclBS1c-uX-108" value="" style="group" vertex="1" connectable="0" parent="1">
          <mxGeometry x="1200" y="590" width="258.5" height="93" as="geometry" />
        </mxCell>
        <mxCell id="ZF9SivgB0cZclBS1c-uX-109" value="Report Rekap Evaluasi" style="whiteSpace=wrap;html=1;fontSize=14;fontFamily=Tahoma;fillColor=#dae8fc;strokeColor=#6c8ebf;rounded=1;fontStyle=1;" vertex="1" parent="ZF9SivgB0cZclBS1c-uX-108">
          <mxGeometry width="215" height="60" as="geometry" />
        </mxCell>
        <mxCell id="ZF9SivgB0cZclBS1c-uX-110" value="" style="group" vertex="1" connectable="0" parent="ZF9SivgB0cZclBS1c-uX-108">
          <mxGeometry x="195" y="34" width="63.5" height="59" as="geometry" />
        </mxCell>
        <mxCell id="ZF9SivgB0cZclBS1c-uX-111" value="" style="verticalLabelPosition=bottom;html=1;verticalAlign=top;align=center;strokeColor=#9673a6;fillColor=#e1d5e7;shape=mxgraph.azure.user;" vertex="1" parent="ZF9SivgB0cZclBS1c-uX-110">
          <mxGeometry width="47.5" height="50" as="geometry" />
        </mxCell>
        <mxCell id="ZF9SivgB0cZclBS1c-uX-112" value="" style="verticalLabelPosition=bottom;html=1;verticalAlign=top;align=center;strokeColor=#82b366;fillColor=#d5e8d4;shape=mxgraph.azure.user;" vertex="1" parent="ZF9SivgB0cZclBS1c-uX-110">
          <mxGeometry x="13" y="9" width="47.5" height="50" as="geometry" />
        </mxCell>
        <mxCell id="ZF9SivgB0cZclBS1c-uX-114" value="" style="group" vertex="1" connectable="0" parent="1">
          <mxGeometry x="1200" y="695" width="258.5" height="93" as="geometry" />
        </mxCell>
        <mxCell id="ZF9SivgB0cZclBS1c-uX-115" value="Report Cicilan" style="whiteSpace=wrap;html=1;fontSize=14;fontFamily=Tahoma;fillColor=#dae8fc;strokeColor=#6c8ebf;rounded=1;fontStyle=1;" vertex="1" parent="ZF9SivgB0cZclBS1c-uX-114">
          <mxGeometry width="215" height="60" as="geometry" />
        </mxCell>
        <mxCell id="ZF9SivgB0cZclBS1c-uX-116" value="" style="group" vertex="1" connectable="0" parent="ZF9SivgB0cZclBS1c-uX-114">
          <mxGeometry x="195" y="34" width="63.5" height="59" as="geometry" />
        </mxCell>
        <mxCell id="ZF9SivgB0cZclBS1c-uX-117" value="" style="verticalLabelPosition=bottom;html=1;verticalAlign=top;align=center;strokeColor=#9673a6;fillColor=#e1d5e7;shape=mxgraph.azure.user;" vertex="1" parent="ZF9SivgB0cZclBS1c-uX-116">
          <mxGeometry width="47.5" height="50" as="geometry" />
        </mxCell>
        <mxCell id="ZF9SivgB0cZclBS1c-uX-118" value="" style="verticalLabelPosition=bottom;html=1;verticalAlign=top;align=center;strokeColor=#82b366;fillColor=#d5e8d4;shape=mxgraph.azure.user;" vertex="1" parent="ZF9SivgB0cZclBS1c-uX-116">
          <mxGeometry x="13" y="9" width="47.5" height="50" as="geometry" />
        </mxCell>
        <mxCell id="ZF9SivgB0cZclBS1c-uX-123" value="" style="verticalLabelPosition=bottom;html=1;verticalAlign=top;align=center;strokeColor=#9673a6;fillColor=#e1d5e7;shape=mxgraph.azure.user;" vertex="1" parent="1">
          <mxGeometry x="710" y="415" width="47.5" height="50" as="geometry" />
        </mxCell>
        <mxCell id="ZF9SivgB0cZclBS1c-uX-125" value="" style="verticalLabelPosition=bottom;html=1;verticalAlign=top;align=center;strokeColor=#9673a6;fillColor=#e1d5e7;shape=mxgraph.azure.user;" vertex="1" parent="1">
          <mxGeometry x="710" y="518" width="47.5" height="50" as="geometry" />
        </mxCell>
        <mxCell id="ZF9SivgB0cZclBS1c-uX-128" value="" style="verticalLabelPosition=bottom;html=1;verticalAlign=top;align=center;strokeColor=#9673a6;fillColor=#e1d5e7;shape=mxgraph.azure.user;" vertex="1" parent="1">
          <mxGeometry x="170" y="280" width="47.5" height="50" as="geometry" />
        </mxCell>
        <mxCell id="ZF9SivgB0cZclBS1c-uX-130" value="" style="verticalLabelPosition=bottom;html=1;verticalAlign=top;align=center;strokeColor=#9673a6;fillColor=#e1d5e7;shape=mxgraph.azure.user;" vertex="1" parent="1">
          <mxGeometry x="424" y="424" width="47.5" height="50" as="geometry" />
        </mxCell>
        <mxCell id="ZF9SivgB0cZclBS1c-uX-131" value="" style="group" vertex="1" connectable="0" parent="1">
          <mxGeometry x="1200" y="810" width="258.5" height="93" as="geometry" />
        </mxCell>
        <mxCell id="ZF9SivgB0cZclBS1c-uX-132" value="Report Profitabilitas" style="whiteSpace=wrap;html=1;fontSize=14;fontFamily=Tahoma;fillColor=#dae8fc;strokeColor=#6c8ebf;rounded=1;fontStyle=1;" vertex="1" parent="ZF9SivgB0cZclBS1c-uX-131">
          <mxGeometry width="215" height="60" as="geometry" />
        </mxCell>
        <mxCell id="ZF9SivgB0cZclBS1c-uX-133" value="" style="group" vertex="1" connectable="0" parent="ZF9SivgB0cZclBS1c-uX-131">
          <mxGeometry x="195" y="34" width="63.5" height="59" as="geometry" />
        </mxCell>
        <mxCell id="ZF9SivgB0cZclBS1c-uX-134" value="" style="verticalLabelPosition=bottom;html=1;verticalAlign=top;align=center;strokeColor=#9673a6;fillColor=#e1d5e7;shape=mxgraph.azure.user;" vertex="1" parent="ZF9SivgB0cZclBS1c-uX-133">
          <mxGeometry width="47.5" height="50" as="geometry" />
        </mxCell>
        <mxCell id="ZF9SivgB0cZclBS1c-uX-135" value="" style="verticalLabelPosition=bottom;html=1;verticalAlign=top;align=center;strokeColor=#82b366;fillColor=#d5e8d4;shape=mxgraph.azure.user;" vertex="1" parent="ZF9SivgB0cZclBS1c-uX-133">
          <mxGeometry x="13" y="9" width="47.5" height="50" as="geometry" />
        </mxCell>
        <mxCell id="ZF9SivgB0cZclBS1c-uX-143" value="" style="group" vertex="1" connectable="0" parent="1">
          <mxGeometry x="-90" y="900" width="561.5" height="50" as="geometry" />
        </mxCell>
        <mxCell id="ZF9SivgB0cZclBS1c-uX-138" value="" style="rounded=1;fillColor=#dae8fc;strokeColor=#6c8ebf;fontStyle=1;fontFamily=Tahoma;fontSize=14" vertex="1" parent="ZF9SivgB0cZclBS1c-uX-143">
          <mxGeometry width="50" height="50" as="geometry" />
        </mxCell>
        <mxCell id="ZF9SivgB0cZclBS1c-uX-142" value="New Menu" style="text;html=1;align=left;verticalAlign=middle;whiteSpace=wrap;rounded=0;fontSize=27;" vertex="1" parent="ZF9SivgB0cZclBS1c-uX-143">
          <mxGeometry x="71.5" y="10" width="490" height="30" as="geometry" />
        </mxCell>
      </root>
    </mxGraphModel>
  </diagram>
</mxfile>
